<svg width="25" height="28" viewBox="0 0 25 28" fill="none" xmlns="http://www.w3.org/2000/svg">
<path d="M24.7148 22.1082C23.9058 21.387 23.1975 20.5603 22.6091 19.6502C21.9666 18.3939 21.5816 17.022 21.4765 15.6149V11.4706C21.4821 9.26058 20.6804 7.12456 19.2221 5.4639C17.7638 3.80325 15.7493 2.73227 13.557 2.45218V1.36997C13.557 1.07293 13.4391 0.788065 13.229 0.578031C13.019 0.367996 12.7341 0.25 12.4371 0.25C12.14 0.25 11.8552 0.367996 11.6451 0.578031C11.4351 0.788065 11.3171 1.07293 11.3171 1.36997V2.46896C9.14451 2.76923 7.15434 3.84669 5.71521 5.50177C4.27608 7.15684 3.48551 9.27739 3.48993 11.4706V15.6149C3.38486 17.022 2.99981 18.3939 2.35738 19.6502C1.77926 20.5582 1.08238 21.3848 0.285235 22.1082C0.195748 22.1868 0.124028 22.2836 0.0748468 22.3921C0.0256657 22.5006 0.000150836 22.6183 0 22.7374V23.8784C0 24.1009 0.0883866 24.3142 0.245716 24.4716C0.403045 24.6289 0.616429 24.7173 0.838926 24.7173H24.1611C24.3836 24.7173 24.597 24.6289 24.7543 24.4716C24.9116 24.3142 25 24.1009 25 23.8784V22.7374C24.9998 22.6183 24.9743 22.5006 24.9252 22.3921C24.876 22.2836 24.8043 22.1868 24.7148 22.1082ZM1.74497 23.0394C2.52551 22.2854 3.21275 21.4404 3.79195 20.5227C4.60118 19.0054 5.07335 17.3314 5.17617 15.6149V11.4706C5.1429 10.4874 5.30782 9.50761 5.66111 8.58949C6.0144 7.67136 6.54884 6.83371 7.23259 6.12643C7.91635 5.41914 8.73544 4.85668 9.64109 4.47255C10.5467 4.08841 11.5204 3.89044 12.5042 3.89044C13.4879 3.89044 14.4616 4.08841 15.3673 4.47255C16.273 4.85668 17.092 5.41914 17.7758 6.12643C18.4596 6.83371 18.994 7.67136 19.3473 8.58949C19.7006 9.50761 19.8655 10.4874 19.8322 11.4706V15.6149C19.935 17.3314 20.4072 19.0054 21.2164 20.5227C21.7956 21.4404 22.4829 22.2854 23.2634 23.0394H1.74497Z" fill="#333333"/>
<path d="M12.542 27.5193C13.0705 27.5071 13.5776 27.3085 13.9737 26.9584C14.3698 26.6084 14.6294 26.1295 14.7065 25.6066H10.2937C10.373 26.1437 10.6446 26.6338 11.0582 26.9857C11.4718 27.3375 11.9991 27.5272 12.542 27.5193Z" fill="#333333"/>
</svg>
