<svg width="25" height="28" viewBox="0 0 25 28" fill="none" xmlns="http://www.w3.org/2000/svg">
<path d="M24.7148 21.8861C23.9058 21.1649 23.1975 20.3381 22.6091 19.428C21.9666 18.1717 21.5816 16.7998 21.4765 15.3928V11.2485C21.4821 9.03841 20.6804 6.90239 19.2221 5.24174C17.7638 3.58108 15.7493 2.5101 13.557 2.23001V1.1478C13.557 0.850765 13.4391 0.565897 13.229 0.355863C13.019 0.145828 12.7341 0.027832 12.4371 0.027832C12.14 0.027832 11.8552 0.145828 11.6451 0.355863C11.4351 0.565897 11.3171 0.850765 11.3171 1.1478V2.24679C9.14451 2.54707 7.15434 3.62452 5.71521 5.2796C4.27608 6.93468 3.48551 9.05522 3.48993 11.2485V15.3928C3.38486 16.7998 2.99981 18.1717 2.35738 19.428C1.77926 20.336 1.08238 21.1627 0.285235 21.8861C0.195748 21.9647 0.124028 22.0614 0.0748468 22.1699C0.0256657 22.2784 0.000150836 22.3961 0 22.5152V23.6562C0 23.8787 0.0883866 24.0921 0.245716 24.2494C0.403045 24.4067 0.616429 24.4951 0.838926 24.4951H24.1611C24.3836 24.4951 24.597 24.4067 24.7543 24.2494C24.9116 24.0921 25 23.8787 25 23.6562V22.5152C24.9998 22.3961 24.9743 22.2784 24.9252 22.1699C24.876 22.0614 24.8043 21.9647 24.7148 21.8861ZM1.74497 22.8173C2.52551 22.0632 3.21275 21.2183 3.79195 20.3005C4.60119 18.7833 5.07335 17.1092 5.17617 15.3928V11.2485C5.1429 10.2653 5.30782 9.28545 5.66111 8.36732C6.0144 7.44919 6.54884 6.61154 7.23259 5.90426C7.91634 5.19697 8.73544 4.63452 9.64109 4.25038C10.5467 3.86624 11.5204 3.66827 12.5042 3.66827C13.4879 3.66827 14.4616 3.86624 15.3673 4.25038C16.273 4.63452 17.092 5.19697 17.7758 5.90426C18.4596 6.61154 18.994 7.44919 19.3473 8.36732C19.7006 9.28545 19.8655 10.2653 19.8322 11.2485V15.3928C19.935 17.1092 20.4072 18.7833 21.2164 20.3005C21.7956 21.2183 22.4829 22.0632 23.2634 22.8173H1.74497Z" fill="#2E43FF"/>
<path d="M12.542 27.2971C13.0705 27.285 13.5776 27.0863 13.9737 26.7363C14.3698 26.3862 14.6294 25.9074 14.7065 25.3844H10.2937C10.373 25.9216 10.6446 26.4117 11.0582 26.7635C11.4718 27.1154 11.9991 27.305 12.542 27.2971V27.2971Z" fill="#2E43FF"/>
</svg>
