<svg width="25" height="28" viewBox="0 0 25 28" fill="none" xmlns="http://www.w3.org/2000/svg">
<path d="M5.55554 12.5H8.33332V15.2778H5.55554V12.5ZM5.55554 18.0556H8.33332V20.8333H5.55554V18.0556ZM11.1111 12.5H13.8889V15.2778H11.1111V12.5ZM11.1111 18.0556H13.8889V20.8333H11.1111V18.0556ZM16.6667 12.5H19.4444V15.2778H16.6667V12.5ZM16.6667 18.0556H19.4444V20.8333H16.6667V18.0556Z" fill="#333333"/>
<path d="M2.77778 27.7778H22.2222C23.7542 27.7778 25 26.5319 25 25V5.55556C25 4.02361 23.7542 2.77778 22.2222 2.77778H19.4444V0H16.6667V2.77778H8.33333V0H5.55556V2.77778H2.77778C1.24583 2.77778 0 4.02361 0 5.55556V25C0 26.5319 1.24583 27.7778 2.77778 27.7778ZM22.2222 8.33333L22.2236 25H2.77778V8.33333H22.2222Z" fill="#333333"/>
</svg>
