<svg width="25" height="29" viewBox="0 0 25 29" fill="none" xmlns="http://www.w3.org/2000/svg">
<path d="M5.55554 12.75H8.33332V15.5278H5.55554V12.75ZM5.55554 18.3056H8.33332V21.0833H5.55554V18.3056ZM11.1111 12.75H13.8889V15.5278H11.1111V12.75ZM11.1111 18.3056H13.8889V21.0833H11.1111V18.3056ZM16.6667 12.75H19.4444V15.5278H16.6667V12.75ZM16.6667 18.3056H19.4444V21.0833H16.6667V18.3056Z" fill="#2E43FF"/>
<path d="M2.77778 28.0278H22.2222C23.7542 28.0278 25 26.7819 25 25.25V5.80556C25 4.27361 23.7542 3.02778 22.2222 3.02778H19.4444V0.25H16.6667V3.02778H8.33333V0.25H5.55556V3.02778H2.77778C1.24583 3.02778 0 4.27361 0 5.80556V25.25C0 26.7819 1.24583 28.0278 2.77778 28.0278ZM22.2222 8.58333L22.2236 25.25H2.77778V8.58333H22.2222Z" fill="#2E43FF"/>
</svg>
