<svg width="25" height="32" viewBox="0 0 25 32" fill="none" xmlns="http://www.w3.org/2000/svg">
<path d="M20.7031 0C21.2674 0 21.8261 0.111142 22.3475 0.32708C22.8688 0.543018 23.3425 0.859524 23.7415 1.25853C24.1405 1.65753 24.457 2.13121 24.6729 2.65253C24.8889 3.17385 25 3.7326 25 4.29688V26.9531C25 27.5174 24.8889 28.0761 24.6729 28.5975C24.457 29.1188 24.1405 29.5925 23.7415 29.9915C23.3425 30.3905 22.8688 30.707 22.3475 30.9229C21.8261 31.1389 21.2674 31.25 20.7031 31.25H4.29688C3.73247 31.25 3.17359 31.1388 2.65217 30.9228C2.13075 30.7067 1.657 30.3901 1.25797 29.9909C0.858951 29.5918 0.542478 29.1179 0.326631 28.5964C0.110785 28.0749 -0.000204954 27.516 2.84118e-07 26.9516V4.29688C2.84118e-07 2.32813 1.32188 0.671875 3.125 0.160937V2.73438C2.65 3.09063 2.34375 3.65625 2.34375 4.29688V26.95C2.34375 28.0281 3.21875 28.9031 4.29688 28.9031H20.7031C21.7812 28.9031 22.6562 28.0281 22.6562 26.95V4.29688C22.6562 3.21875 21.7812 2.34375 20.7031 2.34375H17.1875V0H20.7031ZM15.625 0V12.7172C15.625 13.8844 14.375 14.3219 13.6094 13.9109L13.4813 13.8297L10.1594 11.8219L6.9125 13.7766C6.13125 14.3391 4.83438 13.9953 4.69844 12.9047L4.6875 12.7188V0H15.625ZM13.2812 2.34375H7.03125V10.9734L9.48906 9.49063C9.68488 9.38653 9.90207 9.32899 10.1237 9.32248C10.3454 9.31598 10.5656 9.36068 10.7672 9.45313L13.2828 10.975V2.34375H13.2812Z" fill="#2E43FF"/>
</svg>
