<svg width="22" height="22" viewBox="0 0 22 22" fill="none" xmlns="http://www.w3.org/2000/svg">
<path d="M1.22222 9.77778H8.55556C8.87971 9.77778 9.19059 9.64901 9.4198 9.4198C9.64901 9.19059 9.77778 8.87971 9.77778 8.55556V1.22222C9.77778 0.898069 9.64901 0.587192 9.4198 0.357981C9.19059 0.128769 8.87971 0 8.55556 0H1.22222C0.898069 0 0.587192 0.128769 0.357981 0.357981C0.128769 0.587192 0 0.898069 0 1.22222V8.55556C0 8.87971 0.128769 9.19059 0.357981 9.4198C0.587192 9.64901 0.898069 9.77778 1.22222 9.77778ZM13.4444 9.77778H20.7778C21.1019 9.77778 21.4128 9.64901 21.642 9.4198C21.8712 9.19059 22 8.87971 22 8.55556V1.22222C22 0.898069 21.8712 0.587192 21.642 0.357981C21.4128 0.128769 21.1019 0 20.7778 0H13.4444C13.1203 0 12.8094 0.128769 12.5802 0.357981C12.351 0.587192 12.2222 0.898069 12.2222 1.22222V8.55556C12.2222 8.87971 12.351 9.19059 12.5802 9.4198C12.8094 9.64901 13.1203 9.77778 13.4444 9.77778ZM1.22222 22H8.55556C8.87971 22 9.19059 21.8712 9.4198 21.642C9.64901 21.4128 9.77778 21.1019 9.77778 20.7778V13.4444C9.77778 13.1203 9.64901 12.8094 9.4198 12.5802C9.19059 12.351 8.87971 12.2222 8.55556 12.2222H1.22222C0.898069 12.2222 0.587192 12.351 0.357981 12.5802C0.128769 12.8094 0 13.1203 0 13.4444V20.7778C0 21.1019 0.128769 21.4128 0.357981 21.642C0.587192 21.8712 0.898069 22 1.22222 22ZM13.4444 22H20.7778C21.1019 22 21.4128 21.8712 21.642 21.642C21.8712 21.4128 22 21.1019 22 20.7778V13.4444C22 13.1203 21.8712 12.8094 21.642 12.5802C21.4128 12.351 21.1019 12.2222 20.7778 12.2222H13.4444C13.1203 12.2222 12.8094 12.351 12.5802 12.5802C12.351 12.8094 12.2222 13.1203 12.2222 13.4444V20.7778C12.2222 21.1019 12.351 21.4128 12.5802 21.642C12.8094 21.8712 13.1203 22 13.4444 22Z" fill="#333333"/>
</svg>
