<svg width="5" height="20" viewBox="0 0 5 20" fill="none" xmlns="http://www.w3.org/2000/svg">
<path fill-rule="evenodd" clip-rule="evenodd" d="M1.10786 19.7144C1.38028 19.8373 1.68639 19.9231 2.00859 19.9667C2.3308 20.0104 2.66275 20.0111 2.98537 19.9688C3.30799 19.9265 3.61491 19.8421 3.8885 19.7203C4.16209 19.5986 4.39695 19.4419 4.57959 19.2594C4.76223 19.0768 4.88904 18.872 4.95273 18.6566C5.01642 18.4412 5.01574 18.2196 4.95073 18.0043C4.88572 17.7891 4.75766 17.5846 4.57391 17.4026C4.39016 17.2205 4.15434 17.0645 3.88001 16.9435C3.3301 16.7178 2.67057 16.6431 2.03997 16.7352C1.40936 16.8273 0.85676 17.0791 0.498244 17.4375C0.139727 17.796 0.00320042 18.2333 0.117342 18.6575C0.231485 19.0818 0.587413 19.46 1.11036 19.7127L1.10786 19.7144ZM2.49518 11.6633C1.83342 11.6633 1.19876 11.4878 0.730823 11.1753C0.262885 10.8629 0 10.4391 0 9.99716C0 9.55525 0.262885 9.13145 0.730823 8.81898C1.19876 8.50651 1.83342 8.33096 2.49518 8.33096C3.15695 8.33096 3.79161 8.50651 4.25954 8.81898C4.72748 9.13145 4.99037 9.55525 4.99037 9.99716C4.99037 10.4391 4.72748 10.8629 4.25954 11.1753C3.79161 11.4878 3.15695 11.6633 2.49518 11.6633V11.6633ZM2.49518 3.33239C1.83342 3.33239 1.19876 3.15684 0.730823 2.84437C0.262885 2.5319 0 2.10809 0 1.66619C0 1.22429 0.262885 0.800488 0.730823 0.488016C1.19876 0.175545 1.83342 0 2.49518 0C3.15695 0 3.79161 0.175545 4.25954 0.488016C4.72748 0.800488 4.99037 1.22429 4.99037 1.66619C4.99037 2.10809 4.72748 2.5319 4.25954 2.84437C3.79161 3.15684 3.15695 3.33239 2.49518 3.33239V3.33239Z" fill="black"/>
</svg>
