<svg width="22" height="20" viewBox="0 0 22 20" fill="none" xmlns="http://www.w3.org/2000/svg">
<path d="M8.35986 2.16214H21.9998V3.78376H8.35986V2.16214Z" fill="#333333"/>
<path d="M0 2.97297C0 3.56097 0.193541 4.13576 0.556148 4.62466C0.918754 5.11356 1.43414 5.49462 2.03713 5.71963C2.64013 5.94465 3.30364 6.00353 3.94378 5.88881C4.58391 5.7741 5.17191 5.49095 5.63342 5.07518C6.09494 4.6594 6.40923 4.12967 6.53656 3.55297C6.66389 2.97627 6.59854 2.3785 6.34877 1.83526C6.099 1.29202 5.67604 0.82771 5.13336 0.501036C4.59068 0.174362 3.95266 0 3.29998 0C2.42508 0.000885242 1.58628 0.314392 0.967628 0.87174C0.348974 1.42909 0.000982615 2.18476 0 2.97297V2.97297ZM3.29998 1.48648C3.62632 1.48648 3.94533 1.57367 4.21667 1.737C4.48801 1.90034 4.69949 2.1325 4.82438 2.40412C4.94926 2.67574 4.98194 2.97462 4.91827 3.26297C4.85461 3.55132 4.69746 3.81618 4.4667 4.02407C4.23595 4.23196 3.94195 4.37353 3.62188 4.43089C3.30181 4.48825 2.97006 4.45881 2.66856 4.3463C2.36706 4.23379 2.10937 4.04327 1.92807 3.79882C1.74676 3.55436 1.64999 3.26697 1.64999 2.97297C1.65048 2.57886 1.82448 2.20103 2.13381 1.92235C2.44313 1.64368 2.86253 1.48693 3.29998 1.48648Z" fill="#333333"/>
<path d="M8.35986 9.18918H21.9998V10.8108H8.35986V9.18918Z" fill="#333333"/>
<path d="M3.29998 12.9731C3.95266 12.9731 4.59068 12.7987 5.13336 12.472C5.67604 12.1454 6.099 11.681 6.34877 11.1378C6.59854 10.5946 6.66389 9.9968 6.53656 9.4201C6.40923 8.8434 6.09494 8.31367 5.63342 7.89789C5.17191 7.48212 4.58391 7.19897 3.94378 7.08426C3.30364 6.96954 2.64013 7.02842 2.03713 7.25344C1.43414 7.47845 0.918754 7.85951 0.556148 8.34841C0.193541 8.83731 0 9.4121 0 10.0001C0.000982615 10.7883 0.348974 11.544 0.967628 12.1013C1.58628 12.6587 2.42508 12.9722 3.29998 12.9731V12.9731ZM3.29998 8.51362C3.62632 8.51362 3.94533 8.6008 4.21667 8.76413C4.48801 8.92747 4.69949 9.15963 4.82438 9.43125C4.94926 9.70287 4.98194 10.0017 4.91827 10.2901C4.85461 10.5784 4.69746 10.8433 4.4667 11.0512C4.23595 11.2591 3.94195 11.4007 3.62188 11.458C3.30181 11.5154 2.97006 11.4859 2.66856 11.3734C2.36706 11.2609 2.10937 11.0704 1.92807 10.8259C1.74676 10.5815 1.64999 10.2941 1.64999 10.0001C1.65048 9.606 1.82448 9.22816 2.13381 8.94949C2.44313 8.67081 2.86253 8.51406 3.29998 8.51362Z" fill="#333333"/>
<path d="M8.35986 16.2162H21.9998V17.8378H8.35986V16.2162Z" fill="#333333"/>
<path d="M3.29998 20C3.95266 20 4.59068 19.8257 5.13336 19.499C5.67604 19.1723 6.099 18.708 6.34877 18.1648C6.59854 17.6215 6.66389 17.0237 6.53656 16.4471C6.40923 15.8704 6.09494 15.3406 5.63342 14.9248C5.17191 14.5091 4.58391 14.2259 3.94378 14.1112C3.30364 13.9965 2.64013 14.0554 2.03713 14.2804C1.43414 14.5054 0.918754 14.8865 0.556148 15.3754C0.193541 15.8643 0 16.4391 0 17.027C0.000982615 17.8153 0.348974 18.5709 0.967628 19.1283C1.58628 19.6856 2.42508 19.9991 3.29998 20V20ZM3.29998 15.5406C3.62632 15.5406 3.94533 15.6277 4.21667 15.7911C4.48801 15.9544 4.69949 16.1866 4.82438 16.4582C4.94926 16.7298 4.98194 17.0287 4.91827 17.317C4.85461 17.6054 4.69746 17.8703 4.4667 18.0782C4.23595 18.286 3.94195 18.4276 3.62188 18.485C3.30181 18.5423 2.97006 18.5129 2.66856 18.4004C2.36706 18.2879 2.10937 18.0973 1.92807 17.8529C1.74676 17.6084 1.64999 17.321 1.64999 17.027C1.65048 16.6329 1.82448 16.2551 2.13381 15.9764C2.44313 15.6978 2.86253 15.541 3.29998 15.5406Z" fill="#333333"/>
</svg>
