<svg width="25" height="25" viewBox="0 0 25 25" fill="none" xmlns="http://www.w3.org/2000/svg">
<path d="M24.8051 13.0213C24.7929 13.0352 24.7834 13.0508 24.77 13.0641L19.1854 18.6492C19.0351 18.7955 18.8332 18.8767 18.6234 18.8753C18.4137 18.8739 18.2129 18.79 18.0646 18.6417C17.9162 18.4934 17.8323 18.2926 17.8308 18.0829C17.8294 17.8732 17.9106 17.6713 18.0569 17.521L22.2796 13.2979H9.30988C9.09824 13.2979 8.89527 13.2138 8.74562 13.0642C8.59596 12.9146 8.51189 12.7116 8.51189 12.5C8.51189 12.2884 8.59596 12.0854 8.74562 11.9358C8.89527 11.7862 9.09824 11.7021 9.30988 11.7021H22.2796L18.0569 7.47899C17.9093 7.32893 17.827 7.12663 17.8278 6.91615C17.8287 6.70566 17.9127 6.50406 18.0616 6.35524C18.2105 6.20642 18.4121 6.12245 18.6227 6.12162C18.8332 6.12079 19.0355 6.20316 19.1855 6.3508L24.7701 11.9359C24.7834 11.9492 24.7929 11.9648 24.8051 11.9789C24.8142 11.9892 24.8228 11.9999 24.8312 12.0108C24.8573 12.0439 24.8807 12.079 24.9011 12.1158L24.9067 12.1266C24.968 12.2415 25 12.3697 25 12.4999C25 12.6301 24.968 12.7584 24.9067 12.8733C24.9049 12.8769 24.9031 12.8806 24.9011 12.8842C24.8807 12.921 24.8573 12.9561 24.8312 12.9892C24.8228 13.0001 24.8141 13.0107 24.8051 13.0211V13.0213ZM9.30988 23.4043H1.86198C1.79146 23.4041 1.72387 23.3761 1.674 23.3262C1.62414 23.2764 1.59608 23.2088 1.59598 23.1383V1.8617C1.59608 1.7912 1.62414 1.72361 1.674 1.67376C1.72387 1.6239 1.79146 1.59585 1.86198 1.59574H9.30988C9.52152 1.59574 9.72449 1.51168 9.87414 1.36205C10.0238 1.21242 10.1079 1.00948 10.1079 0.797872C10.1079 0.586263 10.0238 0.383321 9.87414 0.233691C9.72449 0.0840612 9.52152 0 9.30988 0H1.86198C1.36832 0.000563128 0.895048 0.196887 0.545982 0.545902C0.196916 0.894917 0.000563211 1.36812 0 1.8617V23.1383C0.000563211 23.6319 0.196916 24.1051 0.545982 24.4541C0.895048 24.8031 1.36832 24.9994 1.86198 25H9.30988C9.52152 25 9.72449 24.9159 9.87414 24.7663C10.0238 24.6167 10.1079 24.4137 10.1079 24.2021C10.1079 23.9905 10.0238 23.7876 9.87414 23.6379C9.72449 23.4883 9.52152 23.4043 9.30988 23.4043Z" fill="#2E43FF"/>
</svg>
