<svg width="50" height="49" viewBox="0 0 50 49" fill="none" xmlns="http://www.w3.org/2000/svg">
<rect x="2.5" y="2.89648" width="44.75" height="31.8621" fill="#CCE7FF"/>
<path d="M4.54545 4.82759V33.7931H45.4545V4.82759H4.54545ZM4.54545 0H45.4545C46.6601 0 47.8162 0.508619 48.6687 1.41397C49.5211 2.31931 50 3.54723 50 4.82759V33.7931C50 35.0724 49.5227 36.3034 48.6591 37.1966C47.8182 38.1138 46.6591 38.6207 45.4545 38.6207H29.5455V43.4483H34.0909V48.2759H15.9091V43.4483H20.4545V38.6207H4.54545C3.34091 38.6207 2.18182 38.1138 1.34091 37.1966C0.477273 36.3034 0 35.0724 0 33.7931V4.82759C0 2.14828 2.02273 0 4.54545 0ZM22.3636 16.7276C23.0682 16.0034 24.0227 15.569 25 15.569C25.9773 15.5931 26.9318 16.0034 27.6364 16.7517C28.3182 17.4759 28.7273 18.4897 28.7273 19.5276C28.7273 20.5897 28.3182 21.5793 27.6364 22.3276C26.9318 23.0759 25.9773 23.4862 25 23.4862C24.0227 23.4862 23.0682 23.0517 22.3636 22.3276C21.6818 21.5793 21.2727 20.5897 21.2727 19.5276C21.2727 18.4897 21.6818 17.4759 22.3636 16.7276ZM20.6136 24.1379C21.1817 24.7646 21.8629 25.2631 22.6166 25.6036C23.3703 25.9442 24.181 26.1197 25 26.1197C25.819 26.1197 26.6297 25.9442 27.3834 25.6036C28.1371 25.2631 28.8183 24.7646 29.3864 24.1379C30.5455 22.931 31.2045 21.2655 31.2045 19.5276C31.2045 17.7897 30.5455 16.1 29.3864 14.869C28.2273 13.6379 26.6364 12.9379 25 12.9379C23.3636 12.9379 21.7727 13.6379 20.6136 14.869C19.4545 16.1 18.7955 17.7897 18.7955 19.5276C18.7955 21.2655 19.4545 22.931 20.6136 24.1379ZM11.3636 19.5276C12.4406 16.6182 14.3173 14.1205 16.7495 12.3597C19.1816 10.5989 22.0565 9.6565 25 9.65517C31.2045 9.65517 36.5 13.7586 38.6364 19.5276C37.5671 22.4425 35.6922 24.9456 33.2584 26.7077C30.8245 28.4697 27.9455 29.4083 25 29.4C18.7955 29.4 13.5 25.3448 11.3636 19.5276Z" fill="white"/>
</svg>
